STARTFONT 2.1
FONT -Monotype-Gill Sans-Regular-R-Normal--18-180-72-72-P-77-iso8859-1
SIZE 18 72 72
FONTBOUNDINGBOX 20 21 -1 -4

STARTPROPERTIES 22
FOUNDRY "Monotype"
FAMILY_NAME "Gill Sans"
WEIGHT_NAME "Regular"
SLANT "R"
SETWIDTH_NAME "Normal"
ADD_STYLE_NAME ""
PIXEL_SIZE 18
POINT_SIZE 180
RESOLUTION_X 72
RESOLUTION_Y 72
SPACING "P"
AVERAGE_WIDTH 77
CHARSET_REGISTRY "iso8859"
CHARSET_ENCODING "1"
COPYRIGHT "Copyright (c) 1996 Monotype Typography Ltd."
CAP_HEIGHT 15
X_HEIGHT 9
WEIGHT 10
QUAD_WIDTH 12
DEFAULT_CHAR 32
FONT_DESCENT 5
FONT_ASCENT 17
ENDPROPERTIES

CHARS 191

STARTCHAR space
ENCODING 32
SWIDTH 278 0
DWIDTH 6 0
BBX 0 0 0 0
BITMAP
ENDCHAR

STARTCHAR exclam
ENCODING 33
SWIDTH 271 0
DWIDTH 5 0
BBX 2 13 1 0
BITMAP
C0
C0
C0
C0
C0
C0
C0
C0
C0
00
00
C0
C0
ENDCHAR

STARTCHAR quotedbl
ENCODING 34
SWIDTH 354 0
DWIDTH 7 0
BBX 5 4 1 9
BITMAP
D8
D8
D8
D8
ENDCHAR

STARTCHAR numbersign
ENCODING 35
SWIDTH 584 0
DWIDTH 11 0
BBX 10 13 0 0
BITMAP
1980
1980
1980
7FC0
7FC0
3300
3300
3300
FF80
FF80
6600
6600
6600
ENDCHAR

STARTCHAR dollar
ENCODING 36
SWIDTH 542 0
DWIDTH 10 0
BBX 8 15 0 -2
BITMAP
18
7E
FF
DB
D8
78
38
1E
1F
1B
DB
FF
7E
18
18
ENDCHAR

STARTCHAR percent
ENCODING 37
SWIDTH 680 0
DWIDTH 13 0
BBX 12 13 0 0
BITMAP
7000
D830
D860
D8C0
D980
7300
0600
0CE0
19B0
31B0
61B0
C1B0
80E0
ENDCHAR

STARTCHAR ampersand
ENCODING 38
SWIDTH 625 0
DWIDTH 12 0
BBX 11 13 1 0
BITMAP
1C00
3E00
6300
6300
6600
3C00
3860
6CC0
C780
C300
C780
FCC0
7860
ENDCHAR

STARTCHAR quoteright
ENCODING 39
SWIDTH 219 0
DWIDTH 4 0
BBX 2 4 1 9
BITMAP
C0
C0
40
80
ENDCHAR

STARTCHAR parenleft
ENCODING 40
SWIDTH 323 0
DWIDTH 6 0
BBX 5 17 1 -4
BITMAP
08
18
30
60
60
C0
C0
C0
C0
C0
C0
C0
60
60
30
18
08
ENDCHAR

STARTCHAR parenright
ENCODING 41
SWIDTH 323 0
DWIDTH 6 0
BBX 5 17 0 -4
BITMAP
80
C0
60
30
30
18
18
18
18
18
18
18
30
30
60
C0
80
ENDCHAR

STARTCHAR asterisk
ENCODING 42
SWIDTH 417 0
DWIDTH 8 0
BBX 8 8 0 6
BITMAP
18
18
DB
FF
18
3C
66
66
ENDCHAR

STARTCHAR plus
ENCODING 43
SWIDTH 584 0
DWIDTH 11 0
BBX 10 10 0 2
BITMAP
0C00
0C00
0C00
0C00
FFC0
FFC0
0C00
0C00
0C00
0C00
ENDCHAR

STARTCHAR comma
ENCODING 44
SWIDTH 219 0
DWIDTH 4 0
BBX 2 4 1 -2
BITMAP
C0
C0
40
80
ENDCHAR

STARTCHAR minus
ENCODING 45
SWIDTH 584 0
DWIDTH 11 0
BBX 9 2 1 5
BITMAP
FF80
FF80
ENDCHAR

STARTCHAR period
ENCODING 46
SWIDTH 219 0
DWIDTH 4 0
BBX 2 2 1 0
BITMAP
C0
C0
ENDCHAR

STARTCHAR slash
ENCODING 47
SWIDTH 281 0
DWIDTH 5 0
BBX 5 13 0 0
BITMAP
18
18
18
30
30
30
30
60
60
60
C0
C0
C0
ENDCHAR

STARTCHAR zero
ENCODING 48
SWIDTH 500 0
DWIDTH 10 0
BBX 8 13 1 0
BITMAP
3C
7E
66
C3
C3
C3
C3
C3
C3
C3
66
7E
3C
ENDCHAR

STARTCHAR one
ENCODING 49
SWIDTH 500 0
DWIDTH 10 0
BBX 2 13 4 0
BITMAP
C0
C0
C0
C0
C0
C0
C0
C0
C0
C0
C0
C0
C0
ENDCHAR

STARTCHAR two
ENCODING 50
SWIDTH 500 0
DWIDTH 10 0
BBX 8 13 1 0
BITMAP
3C
7E
67
03
03
03
06
0C
18
30
60
FF
FF
ENDCHAR

STARTCHAR three
ENCODING 51
SWIDTH 500 0
DWIDTH 10 0
BBX 7 13 1 0
BITMAP
78
FC
CE
06
0C
38
3C
0E
06
06
CE
FC
78
ENDCHAR

STARTCHAR four
ENCODING 52
SWIDTH 500 0
DWIDTH 10 0
BBX 10 13 0 0
BITMAP
0100
0300
0700
0F00
1B00
3300
6300
FFC0
FFC0
0300
0300
0300
0300
ENDCHAR

STARTCHAR five
ENCODING 53
SWIDTH 500 0
DWIDTH 10 0
BBX 8 13 1 0
BITMAP
7E
7E
60
60
60
7C
7E
07
03
03
C7
FE
7C
ENDCHAR

STARTCHAR six
ENCODING 54
SWIDTH 500 0
DWIDTH 10 0
BBX 8 14 1 0
BITMAP
06
0C
18
30
60
60
FC
FE
C7
C3
C3
63
7E
3C
ENDCHAR

STARTCHAR seven
ENCODING 55
SWIDTH 500 0
DWIDTH 10 0
BBX 8 13 1 0
BITMAP
FF
FF
06
06
0C
0C
18
18
30
30
30
60
60
ENDCHAR

STARTCHAR eight
ENCODING 56
SWIDTH 500 0
DWIDTH 10 0
BBX 8 13 1 0
BITMAP
3C
7E
C3
C3
C3
7E
7E
C3
C3
C3
C3
7E
3C
ENDCHAR

STARTCHAR nine
ENCODING 57
SWIDTH 500 0
DWIDTH 10 0
BBX 8 13 1 0
BITMAP
3C
7E
C6
C3
C3
E3
7F
3F
06
06
0C
18
30
ENDCHAR

STARTCHAR colon
ENCODING 58
SWIDTH 219 0
DWIDTH 4 0
BBX 2 9 1 0
BITMAP
C0
C0
00
00
00
00
00
C0
C0
ENDCHAR

STARTCHAR semicolon
ENCODING 59
SWIDTH 219 0
DWIDTH 4 0
BBX 2 11 1 -2
BITMAP
C0
C0
00
00
00
00
00
C0
C0
40
80
ENDCHAR

STARTCHAR less
ENCODING 60
SWIDTH 584 0
DWIDTH 11 0
BBX 10 9 0 2
BITMAP
01C0
0780
1E00
7800
E000
7800
1E00
0780
01C0
ENDCHAR

STARTCHAR equal
ENCODING 61
SWIDTH 584 0
DWIDTH 11 0
BBX 9 6 1 4
BITMAP
FF80
FF80
0000
0000
FF80
FF80
ENDCHAR

STARTCHAR greater
ENCODING 62
SWIDTH 584 0
DWIDTH 11 0
BBX 10 9 0 2
BITMAP
E000
7800
1E00
0780
01C0
0780
1E00
7800
E000
ENDCHAR

STARTCHAR question
ENCODING 63
SWIDTH 333 0
DWIDTH 6 0
BBX 4 13 1 0
BITMAP
60
F0
30
30
70
60
C0
C0
80
80
00
C0
C0
ENDCHAR

STARTCHAR at
ENCODING 64
SWIDTH 1010 0
DWIDTH 19 0
BBX 17 18 1 -4
BITMAP
07F800
0FFC00
180600
300300
60C300
61F980
C33180
C63180
C63180
CC6300
CC6300
CC6600
4FFC00
679800
300180
180700
0FFC00
03F000
ENDCHAR

STARTCHAR A
ENCODING 65
SWIDTH 667 0
DWIDTH 13 0
BBX 13 13 0 0
BITMAP
0200
0700
0700
0D80
0D80
18C0
18C0
3FE0
3FE0
6030
6030
C018
C018
ENDCHAR

STARTCHAR B
ENCODING 66
SWIDTH 563 0
DWIDTH 11 0
BBX 8 13 2 0
BITMAP
F8
FC
C6
C6
C6
FC
FE
C7
C3
C3
C3
FE
FC
ENDCHAR

STARTCHAR C
ENCODING 67
SWIDTH 708 0
DWIDTH 13 0
BBX 10 13 2 0
BITMAP
0F00
3FC0
70C0
6000
C000
C000
C000
C000
C000
6000
70C0
3FC0
0F00
ENDCHAR

STARTCHAR D
ENCODING 68
SWIDTH 750 0
DWIDTH 14 0
BBX 11 13 2 0
BITMAP
FE00
FF80
C1C0
C0C0
C060
C060
C060
C060
C060
C0C0
C1C0
FF80
FE00
ENDCHAR

STARTCHAR E
ENCODING 69
SWIDTH 500 0
DWIDTH 10 0
BBX 7 13 2 0
BITMAP
FE
FE
C0
C0
C0
FE
FE
C0
C0
C0
C0
FE
FE
ENDCHAR

STARTCHAR F
ENCODING 70
SWIDTH 469 0
DWIDTH 9 0
BBX 6 13 2 0
BITMAP
FC
FC
C0
C0
C0
FC
FC
C0
C0
C0
C0
C0
C0
ENDCHAR

STARTCHAR G
ENCODING 71
SWIDTH 740 0
DWIDTH 14 0
BBX 10 13 2 0
BITMAP
0F00
3FC0
70C0
6000
C000
C000
C3C0
C3C0
C0C0
60C0
70C0
3FC0
0F00
ENDCHAR

STARTCHAR H
ENCODING 72
SWIDTH 729 0
DWIDTH 14 0
BBX 10 13 2 0
BITMAP
C0C0
C0C0
C0C0
C0C0
C0C0
FFC0
FFC0
C0C0
C0C0
C0C0
C0C0
C0C0
C0C0
ENDCHAR

STARTCHAR I
ENCODING 73
SWIDTH 250 0
DWIDTH 5 0
BBX 2 13 1 0
BITMAP
C0
C0
C0
C0
C0
C0
C0
C0
C0
C0
C0
C0
C0
ENDCHAR

STARTCHAR J
ENCODING 74
SWIDTH 250 0
DWIDTH 5 0
BBX 4 17 -1 -4
BITMAP
30
30
30
30
30
30
30
30
30
30
30
30
30
30
30
F0
E0
ENDCHAR

STARTCHAR K
ENCODING 75
SWIDTH 656 0
DWIDTH 12 0
BBX 10 13 2 0
BITMAP
C180
C300
C600
CC00
D800
F000
F000
F800
DC00
CE00
C700
C380
C1C0
ENDCHAR

STARTCHAR L
ENCODING 76
SWIDTH 490 0
DWIDTH 9 0
BBX 6 13 2 0
BITMAP
C0
C0
C0
C0
C0
C0
C0
C0
C0
C0
C0
FC
FC
ENDCHAR

STARTCHAR M
ENCODING 77
SWIDTH 781 0
DWIDTH 15 0
BBX 11 13 2 0
BITMAP
C060
E0E0
F1E0
FBE0
DF60
CE60
C460
C060
C060
C060
C060
C060
C060
ENDCHAR

STARTCHAR N
ENCODING 78
SWIDTH 781 0
DWIDTH 15 0
BBX 11 13 2 0
BITMAP
C060
E060
F060
F860
D860
CC60
CE60
C660
C360
C1E0
C1E0
C0E0
C060
ENDCHAR

STARTCHAR O
ENCODING 79
SWIDTH 823 0
DWIDTH 16 0
BBX 12 13 2 0
BITMAP
0F00
3FC0
70E0
6060
C030
C030
C030
C030
C030
6060
70E0
3FC0
0F00
ENDCHAR

STARTCHAR P
ENCODING 80
SWIDTH 510 0
DWIDTH 10 0
BBX 7 13 2 0
BITMAP
F8
FC
C6
C6
C6
FC
F8
C0
C0
C0
C0
C0
C0
ENDCHAR

STARTCHAR Q
ENCODING 81
SWIDTH 823 0
DWIDTH 16 0
BBX 12 16 2 -3
BITMAP
0F00
3FC0
70E0
6060
C030
C030
C030
C030
C030
6060
70E0
3FC0
0F00
0700
03F0
00E0
ENDCHAR

STARTCHAR R
ENCODING 82
SWIDTH 604 0
DWIDTH 11 0
BBX 8 13 2 0
BITMAP
F8
FC
C6
C6
C6
FC
F8
D8
CC
CC
C6
C7
C3
ENDCHAR

STARTCHAR S
ENCODING 83
SWIDTH 458 0
DWIDTH 9 0
BBX 7 13 1 0
BITMAP
7C
FE
C6
C0
E0
70
38
1C
0E
06
C6
FE
7C
ENDCHAR

STARTCHAR T
ENCODING 84
SWIDTH 604 0
DWIDTH 11 0
BBX 10 13 0 0
BITMAP
FFC0
FFC0
0C00
0C00
0C00
0C00
0C00
0C00
0C00
0C00
0C00
0C00
0C00
ENDCHAR

STARTCHAR U
ENCODING 85
SWIDTH 708 0
DWIDTH 13 0
BBX 9 13 2 0
BITMAP
C180
C180
C180
C180
C180
C180
C180
C180
C180
C180
E380
7F00
3E00
ENDCHAR

STARTCHAR V
ENCODING 86
SWIDTH 604 0
DWIDTH 11 0
BBX 11 13 0 0
BITMAP
C060
C060
60C0
60C0
60C0
3180
3180
1B00
1B00
1B00
0E00
0E00
0400
ENDCHAR

STARTCHAR W
ENCODING 87
SWIDTH 1042 0
DWIDTH 20 0
BBX 19 13 0 0
BITMAP
C04060
C04060
60E0C0
60E0C0
60E0C0
31B180
31B180
1B1B00
1B1B00
1B1B00
0E0E00
0E0E00
040400
ENDCHAR

STARTCHAR X
ENCODING 88
SWIDTH 708 0
DWIDTH 13 0
BBX 13 13 0 0
BITMAP
C018
E038
7070
38E0
1DC0
0F80
0700
0F80
1DC0
38E0
7070
E038
C018
ENDCHAR

STARTCHAR Y
ENCODING 89
SWIDTH 604 0
DWIDTH 11 0
BBX 12 13 0 0
BITMAP
E070
70E0
39C0
1F80
0F00
0600
0600
0600
0600
0600
0600
0600
0600
ENDCHAR

STARTCHAR Z
ENCODING 90
SWIDTH 646 0
DWIDTH 12 0
BBX 10 13 1 0
BITMAP
FFC0
FFC0
00C0
01C0
0380
0700
0E00
1C00
3800
7000
E000
FFC0
FFC0
ENDCHAR

STARTCHAR bracketleft
ENCODING 91
SWIDTH 333 0
DWIDTH 6 0
BBX 4 17 1 -4
BITMAP
F0
F0
C0
C0
C0
C0
C0
C0
C0
C0
C0
C0
C0
C0
C0
F0
F0
ENDCHAR

STARTCHAR backslash
ENCODING 92
SWIDTH 281 0
DWIDTH 5 0
BBX 5 13 0 0
BITMAP
C0
C0
40
60
60
20
30
30
30
10
18
18
08
ENDCHAR

STARTCHAR bracketright
ENCODING 93
SWIDTH 333 0
DWIDTH 6 0
BBX 4 17 1 -4
BITMAP
F0
F0
30
30
30
30
30
30
30
30
30
30
30
30
30
F0
F0
ENDCHAR

STARTCHAR asciicircum
ENCODING 94
SWIDTH 469 0
DWIDTH 9 0
BBX 7 8 1 5
BITMAP
10
38
38
6C
6C
C6
C6
82
ENDCHAR

STARTCHAR underscore
ENCODING 95
SWIDTH 500 0
DWIDTH 10 0
BBX 10 1 0 -2
BITMAP
FFC0
ENDCHAR

STARTCHAR quoteleft
ENCODING 96
SWIDTH 219 0
DWIDTH 4 0
BBX 2 4 1 9
BITMAP
40
80
C0
C0
ENDCHAR

STARTCHAR a
ENCODING 97
SWIDTH 427 0
DWIDTH 8 0
BBX 7 9 1 0
BITMAP
78
FC
CC
0C
7C
FC
CC
FC
76
ENDCHAR

STARTCHAR b
ENCODING 98
SWIDTH 500 0
DWIDTH 10 0
BBX 7 13 1 0
BITMAP
C0
C0
C0
C0
DC
FE
E6
C6
C6
C6
C6
FE
FC
ENDCHAR

STARTCHAR c
ENCODING 99
SWIDTH 438 0
DWIDTH 8 0
BBX 6 9 1 0
BITMAP
38
7C
CC
C0
C0
C0
CC
7C
38
ENDCHAR

STARTCHAR d
ENCODING 100
SWIDTH 510 0
DWIDTH 10 0
BBX 7 13 1 0
BITMAP
06
06
06
06
7E
FE
C6
C6
C6
C6
C6
FE
7E
ENDCHAR

STARTCHAR e
ENCODING 101
SWIDTH 479 0
DWIDTH 9 0
BBX 8 9 0 0
BITMAP
3C
7E
C3
FF
FF
C0
C3
7F
3E
ENDCHAR

STARTCHAR f
ENCODING 102
SWIDTH 250 0
DWIDTH 5 0
BBX 5 13 0 0
BITMAP
38
78
60
60
F0
F0
60
60
60
60
60
60
60
ENDCHAR

STARTCHAR g
ENCODING 103
SWIDTH 427 0
DWIDTH 8 0
BBX 7 14 0 -4
BITMAP
06
1C
3C
66
66
7E
3C
60
70
3C
7E
C6
FE
7C
ENDCHAR

STARTCHAR h
ENCODING 104
SWIDTH 500 0
DWIDTH 10 0
BBX 7 13 1 0
BITMAP
C0
C0
C0
C0
D8
FC
E6
C6
C6
C6
C6
C6
C6
ENDCHAR

STARTCHAR i
ENCODING 105
SWIDTH 219 0
DWIDTH 4 0
BBX 2 12 1 0
BITMAP
C0
C0
00
C0
C0
C0
C0
C0
C0
C0
C0
C0
ENDCHAR

STARTCHAR j
ENCODING 106
SWIDTH 219 0
DWIDTH 4 0
BBX 3 16 0 -4
BITMAP
60
60
00
60
60
60
60
60
60
60
60
60
60
60
60
C0
ENDCHAR

STARTCHAR k
ENCODING 107
SWIDTH 479 0
DWIDTH 9 0
BBX 8 13 1 0
BITMAP
C0
C0
C0
C0
C6
CC
D8
F0
F0
F8
DC
CE
C7
ENDCHAR

STARTCHAR l
ENCODING 108
SWIDTH 219 0
DWIDTH 4 0
BBX 2 13 1 0
BITMAP
C0
C0
C0
C0
C0
C0
C0
C0
C0
C0
C0
C0
C0
ENDCHAR

STARTCHAR m
ENCODING 109
SWIDTH 771 0
DWIDTH 15 0
BBX 12 9 1 0
BITMAP
DEE0
FFF0
C630
C630
C630
C630
C630
C630
C630
ENDCHAR

STARTCHAR n
ENCODING 110
SWIDTH 500 0
DWIDTH 10 0
BBX 7 9 1 0
BITMAP
DC
FE
E6
C6
C6
C6
C6
C6
C6
ENDCHAR

STARTCHAR o
ENCODING 111
SWIDTH 552 0
DWIDTH 10 0
BBX 8 9 1 0
BITMAP
3C
7E
C3
C3
C3
C3
C3
7E
3C
ENDCHAR

STARTCHAR p
ENCODING 112
SWIDTH 500 0
DWIDTH 10 0
BBX 7 13 1 -4
BITMAP
FC
FE
C6
C6
C6
C6
E6
FE
DC
C0
C0
C0
C0
ENDCHAR

STARTCHAR q
ENCODING 113
SWIDTH 500 0
DWIDTH 10 0
BBX 7 13 1 -4
BITMAP
7E
FE
C6
C6
C6
C6
CE
FE
76
06
06
06
06
ENDCHAR

STARTCHAR r
ENCODING 114
SWIDTH 396 0
DWIDTH 8 0
BBX 6 9 1 0
BITMAP
DC
FC
E0
C0
C0
C0
C0
C0
C0
ENDCHAR

STARTCHAR s
ENCODING 115
SWIDTH 385 0
DWIDTH 7 0
BBX 6 9 0 0
BITMAP
78
FC
CC
60
30
18
CC
FC
78
ENDCHAR

STARTCHAR t
ENCODING 116
SWIDTH 333 0
DWIDTH 6 0
BBX 6 11 0 0
BITMAP
20
60
F8
F8
60
60
60
60
60
7C
38
ENDCHAR

STARTCHAR u
ENCODING 117
SWIDTH 500 0
DWIDTH 10 0
BBX 7 9 1 0
BITMAP
C6
C6
C6
C6
C6
C6
CE
FE
76
ENDCHAR

STARTCHAR v
ENCODING 118
SWIDTH 438 0
DWIDTH 8 0
BBX 8 9 0 0
BITMAP
C3
C3
66
66
3C
3C
3C
18
18
ENDCHAR

STARTCHAR w
ENCODING 119
SWIDTH 719 0
DWIDTH 14 0
BBX 14 9 0 0
BITMAP
C30C
C30C
6798
6798
6498
3CF0
3CF0
1860
1860
ENDCHAR

STARTCHAR x
ENCODING 120
SWIDTH 500 0
DWIDTH 10 0
BBX 9 9 0 0
BITMAP
C180
E380
7700
3E00
1C00
3E00
7700
E380
C180
ENDCHAR

STARTCHAR y
ENCODING 121
SWIDTH 438 0
DWIDTH 8 0
BBX 8 13 0 -4
BITMAP
C3
63
66
36
34
1C
18
18
30
30
60
60
C0
ENDCHAR

STARTCHAR z
ENCODING 122
SWIDTH 417 0
DWIDTH 8 0
BBX 6 9 1 0
BITMAP
FC
FC
0C
18
30
60
C0
FC
FC
ENDCHAR

STARTCHAR braceleft
ENCODING 123
SWIDTH 333 0
DWIDTH 6 0
BBX 6 18 0 -4
BITMAP
0C
18
30
30
30
30
30
60
C0
60
30
30
30
30
30
30
18
0C
ENDCHAR

STARTCHAR bar
ENCODING 124
SWIDTH 260 0
DWIDTH 5 0
BBX 2 17 1 -4
BITMAP
C0
C0
C0
C0
C0
C0
C0
C0
C0
C0
C0
C0
C0
C0
C0
C0
C0
ENDCHAR

STARTCHAR braceright
ENCODING 125
SWIDTH 333 0
DWIDTH 6 0
BBX 6 18 0 -4
BITMAP
C0
60
30
30
30
30
30
18
0C
18
30
30
30
30
30
30
60
C0
ENDCHAR

STARTCHAR asciitilde
ENCODING 126
SWIDTH 584 0
DWIDTH 11 0
BBX 9 3 1 4
BITMAP
7080
FF80
8700
ENDCHAR

STARTCHAR space
ENCODING 160
SWIDTH 278 0
DWIDTH 5 0
BBX 0 0 0 0
BITMAP
ENDCHAR

STARTCHAR exclamdown
ENCODING 161
SWIDTH 271 0
DWIDTH 5 0
BBX 2 13 2 -4
BITMAP
C0
C0
00
00
C0
C0
C0
C0
C0
C0
C0
C0
C0
ENDCHAR

STARTCHAR cent
ENCODING 162
SWIDTH 438 0
DWIDTH 8 0
BBX 6 15 1 -3
BITMAP
08
08
08
38
7C
DC
D0
D0
D0
EC
7C
78
20
20
20
ENDCHAR

STARTCHAR sterling
ENCODING 163
SWIDTH 531 0
DWIDTH 10 0
BBX 8 13 1 0
BITMAP
0E
1F
38
30
30
30
FC
FC
30
30
60
FF
FF
ENDCHAR

STARTCHAR currency
ENCODING 164
SWIDTH 552 0
DWIDTH 10 0
BBX 8 8 1 2
BITMAP
DB
FF
66
C3
C3
66
FF
DB
ENDCHAR

STARTCHAR yen
ENCODING 165
SWIDTH 552 0
DWIDTH 10 0
BBX 10 14 0 0
BITMAP
C0C0
C0C0
6180
3300
3300
1E00
FFC0
FFC0
0C00
FFC0
FFC0
0C00
0C00
0C00
ENDCHAR

STARTCHAR brokenbar
ENCODING 166
SWIDTH 260 0
DWIDTH 5 0
BBX 2 17 1 -4
BITMAP
C0
C0
C0
C0
C0
C0
C0
00
00
C0
C0
C0
C0
C0
C0
C0
C0
ENDCHAR

STARTCHAR section
ENCODING 167
SWIDTH 406 0
DWIDTH 8 0
BBX 7 17 0 -4
BITMAP
1C
3E
66
60
70
F8
DC
CC
C6
66
76
3E
1C
0C
CC
F8
70
ENDCHAR

STARTCHAR dieresis
ENCODING 168
SWIDTH 333 0
DWIDTH 6 0
BBX 6 2 0 10
BITMAP
CC
CC
ENDCHAR

STARTCHAR copyright
ENCODING 169
SWIDTH 740 0
DWIDTH 14 0
BBX 13 13 0 0
BITMAP
0F80
3060
4010
4710
8F88
9988
9808
9988
8F88
4710
4010
3060
0F80
ENDCHAR

STARTCHAR ordfeminine
ENCODING 170
SWIDTH 281 0
DWIDTH 5 0
BBX 5 5 0 8
BITMAP
70
18
78
D8
F8
ENDCHAR

STARTCHAR guillemotleft
ENCODING 171
SWIDTH 490 0
DWIDTH 9 0
BBX 9 9 0 0
BITMAP
0D80
1B00
3600
6C00
D800
6C00
3600
1B00
0D80
ENDCHAR

STARTCHAR logicalnot
ENCODING 172
SWIDTH 584 0
DWIDTH 11 0
BBX 9 6 1 2
BITMAP
FF80
FF80
0180
0180
0180
0180
ENDCHAR

STARTCHAR hyphen
ENCODING 173
SWIDTH 323 0
DWIDTH 6 0
BBX 4 2 1 3
BITMAP
F0
F0
ENDCHAR

STARTCHAR registered
ENCODING 174
SWIDTH 740 0
DWIDTH 14 0
BBX 13 13 0 0
BITMAP
0F80
3060
4010
4F10
8F88
8D88
8F88
8F08
8D88
4D90
4010
3060
0F80
ENDCHAR

STARTCHAR macron
ENCODING 175
SWIDTH 333 0
DWIDTH 6 0
BBX 6 2 0 10
BITMAP
FC
FC
ENDCHAR

STARTCHAR degree
ENCODING 176
SWIDTH 396 0
DWIDTH 8 0
BBX 5 5 1 9
BITMAP
70
D8
88
D8
70
ENDCHAR

STARTCHAR plusminus
ENCODING 177
SWIDTH 584 0
DWIDTH 11 0
BBX 10 12 0 0
BITMAP
0C00
0C00
0C00
0C00
FFC0
FFC0
0C00
0C00
0C00
0C00
FFC0
FFC0
ENDCHAR

STARTCHAR twosuperior
ENCODING 178
SWIDTH 323 0
DWIDTH 6 0
BBX 5 7 0 6
BITMAP
70
F8
98
18
30
78
F8
ENDCHAR

STARTCHAR threesuperior
ENCODING 179
SWIDTH 323 0
DWIDTH 6 0
BBX 5 7 0 6
BITMAP
70
F8
18
30
18
F8
70
ENDCHAR

STARTCHAR acute
ENCODING 180
SWIDTH 333 0
DWIDTH 6 0
BBX 4 3 1 10
BITMAP
30
60
C0
ENDCHAR

STARTCHAR mu
ENCODING 181
SWIDTH 552 0
DWIDTH 10 0
BBX 8 12 1 -3
BITMAP
C3
C3
C3
C3
C3
C3
C3
FF
DB
C0
C0
C0
ENDCHAR

STARTCHAR paragraph
ENCODING 182
SWIDTH 542 0
DWIDTH 10 0
BBX 10 18 0 -4
BITMAP
3FC0
7FC0
F980
F980
F980
F980
7980
3980
1980
1980
1980
1980
1980
1980
1980
1980
1980
1980
ENDCHAR

STARTCHAR periodcentered
ENCODING 183
SWIDTH 260 0
DWIDTH 5 0
BBX 2 2 1 6
BITMAP
C0
C0
ENDCHAR

STARTCHAR cedilla
ENCODING 184
SWIDTH 333 0
DWIDTH 6 0
BBX 4 3 1 -3
BITMAP
60
30
E0
ENDCHAR

STARTCHAR onesuperior
ENCODING 185
SWIDTH 323 0
DWIDTH 6 0
BBX 2 7 2 6
BITMAP
C0
C0
C0
C0
C0
C0
C0
ENDCHAR

STARTCHAR ordmasculine
ENCODING 186
SWIDTH 365 0
DWIDTH 7 0
BBX 6 7 0 6
BITMAP
78
CC
CC
CC
CC
CC
78
ENDCHAR

STARTCHAR guillemotright
ENCODING 187
SWIDTH 490 0
DWIDTH 9 0
BBX 9 9 0 0
BITMAP
D800
6C00
3600
1B00
0D80
1B00
3600
6C00
D800
ENDCHAR

STARTCHAR onequarter
ENCODING 188
SWIDTH 844 0
DWIDTH 16 0
BBX 13 13 1 0
BITMAP
6060
60C0
6080
6180
6300
6200
6610
0C30
1870
18B0
31F8
6030
C030
ENDCHAR

STARTCHAR onehalf
ENCODING 189
SWIDTH 844 0
DWIDTH 16 0
BBX 13 13 1 0
BITMAP
3030
3060
30C0
3180
3300
3300
0670
0CD8
1818
1830
3060
60C0
C1F8
ENDCHAR

STARTCHAR threequarters
ENCODING 190
SWIDTH 844 0
DWIDTH 16 0
BBX 13 13 1 0
BITMAP
7018
D830
1860
70C0
1980
D980
7310
0630
0C70
0CB0
19F8
3030
6030
ENDCHAR

STARTCHAR questiondown
ENCODING 191
SWIDTH 333 0
DWIDTH 6 0
BBX 4 13 1 -4
BITMAP
30
30
00
10
10
30
30
60
E0
C0
C0
F0
60
ENDCHAR

STARTCHAR Agrave
ENCODING 192
SWIDTH 667 0
DWIDTH 13 0
BBX 13 17 0 0
BITMAP
0600
0300
0180
0000
0200
0700
0700
0D80
0D80
18C0
18C0
3FE0
3FE0
6030
6030
C018
C018
ENDCHAR

STARTCHAR Aacute
ENCODING 193
SWIDTH 667 0
DWIDTH 13 0
BBX 13 17 0 0
BITMAP
0180
0300
0600
0000
0200
0700
0700
0D80
0D80
18C0
18C0
3FE0
3FE0
6030
6030
C018
C018
ENDCHAR

STARTCHAR Acircumflex
ENCODING 194
SWIDTH 667 0
DWIDTH 13 0
BBX 13 17 0 0
BITMAP
0300
0780
0CC0
0000
0200
0700
0700
0D80
0D80
18C0
18C0
3FE0
3FE0
6030
6030
C018
C018
ENDCHAR

STARTCHAR Atilde
ENCODING 195
SWIDTH 667 0
DWIDTH 13 0
BBX 13 17 0 0
BITMAP
0640
0FC0
0980
0000
0200
0700
0700
0D80
0D80
18C0
18C0
3FE0
3FE0
6030
6030
C018
C018
ENDCHAR

STARTCHAR Adieresis
ENCODING 196
SWIDTH 667 0
DWIDTH 13 0
BBX 13 16 0 0
BITMAP
0CC0
0CC0
0000
0200
0700
0700
0D80
0D80
18C0
18C0
3FE0
3FE0
6030
6030
C018
C018
ENDCHAR

STARTCHAR Aring
ENCODING 197
SWIDTH 667 0
DWIDTH 13 0
BBX 13 16 0 1
BITMAP
0200
0500
0200
0200
0700
0700
0D80
0D80
18C0
18C0
3FE0
3FE0
6030
6030
C018
C018
ENDCHAR

STARTCHAR AE
ENCODING 198
SWIDTH 896 0
DWIDTH 17 0
BBX 16 13 0 0
BITMAP
00FF
01FF
0360
0360
0660
07FF
0FFF
0C60
1860
3060
3060
607F
E07F
ENDCHAR

STARTCHAR Ccedilla
ENCODING 199
SWIDTH 708 0
DWIDTH 13 0
BBX 10 17 1 -4
BITMAP
0F00
3FC0
70C0
6000
C000
C000
C000
C000
C000
6000
70C0
3FC0
0F00
0800
0C00
0600
1C00
ENDCHAR

STARTCHAR Egrave
ENCODING 200
SWIDTH 500 0
DWIDTH 10 0
BBX 7 17 2 0
BITMAP
30
18
0C
00
FE
FE
C0
C0
C0
FE
FE
C0
C0
C0
C0
FE
FE
ENDCHAR

STARTCHAR Eacute
ENCODING 201
SWIDTH 500 0
DWIDTH 10 0
BBX 7 17 2 0
BITMAP
0C
18
30
00
FE
FE
C0
C0
C0
FE
FE
C0
C0
C0
C0
FE
FE
ENDCHAR

STARTCHAR Ecircumflex
ENCODING 202
SWIDTH 500 0
DWIDTH 10 0
BBX 7 17 2 0
BITMAP
18
3C
66
00
FE
FE
C0
C0
C0
FE
FE
C0
C0
C0
C0
FE
FE
ENDCHAR

STARTCHAR Edieresis
ENCODING 203
SWIDTH 500 0
DWIDTH 10 0
BBX 7 16 2 0
BITMAP
66
66
00
FE
FE
C0
C0
C0
FE
FE
C0
C0
C0
C0
FE
FE
ENDCHAR

STARTCHAR Igrave
ENCODING 204
SWIDTH 250 0
DWIDTH 5 0
BBX 4 17 0 0
BITMAP
C0
60
30
00
60
60
60
60
60
60
60
60
60
60
60
60
60
ENDCHAR

STARTCHAR Iacute
ENCODING 205
SWIDTH 250 0
DWIDTH 5 0
BBX 4 17 1 0
BITMAP
30
60
C0
00
C0
C0
C0
C0
C0
C0
C0
C0
C0
C0
C0
C0
C0
ENDCHAR

STARTCHAR Icircumflex
ENCODING 206
SWIDTH 250 0
DWIDTH 5 0
BBX 6 17 0 0
BITMAP
30
78
CC
00
30
30
30
30
30
30
30
30
30
30
30
30
30
ENDCHAR

STARTCHAR Idieresis
ENCODING 207
SWIDTH 250 0
DWIDTH 5 0
BBX 6 16 -1 0
BITMAP
CC
CC
00
30
30
30
30
30
30
30
30
30
30
30
30
30
ENDCHAR

STARTCHAR Eth
ENCODING 208
SWIDTH 750 0
DWIDTH 14 0
BBX 13 13 0 0
BITMAP
3F80
3FE0
3070
3030
3018
FC18
FC18
3018
3018
3030
3070
3FE0
3F80
ENDCHAR

STARTCHAR Ntilde
ENCODING 209
SWIDTH 781 0
DWIDTH 15 0
BBX 11 17 2 0
BITMAP
1900
3F00
2600
0000
0000
C060
E060
F060
F860
DC60
CC60
C660
C760
C3E0
C1E0
C0E0
C0E0
ENDCHAR

STARTCHAR Ograve
ENCODING 210
SWIDTH 823 0
DWIDTH 16 0
BBX 12 17 2 0
BITMAP
0C00
0600
0300
0000
0F00
3FC0
70E0
6060
C030
C030
C030
C030
C030
6060
70E0
3FC0
0F00
ENDCHAR

STARTCHAR Oacute
ENCODING 211
SWIDTH 823 0
DWIDTH 16 0
BBX 12 17 2 0
BITMAP
0180
0300
0600
0000
0F00
3FC0
70E0
6060
C030
C030
C030
C030
C030
6060
70E0
3FC0
0F00
ENDCHAR

STARTCHAR Ocircumflex
ENCODING 212
SWIDTH 823 0
DWIDTH 16 0
BBX 12 17 2 0
BITMAP
0600
0F00
1980
0000
0F00
3FC0
70E0
6060
C030
C030
C030
C030
C030
6060
70E0
3FC0
0F00
ENDCHAR

STARTCHAR Otilde
ENCODING 213
SWIDTH 823 0
DWIDTH 16 0
BBX 12 17 2 0
BITMAP
0C80
1F80
1300
0000
0F00
3FC0
70E0
6060
C030
C030
C030
C030
C030
6060
70E0
3FC0
0F00
ENDCHAR

STARTCHAR Odieresis
ENCODING 214
SWIDTH 823 0
DWIDTH 16 0
BBX 12 16 2 0
BITMAP
1980
1980
0000
0F00
3FC0
70E0
6060
C030
C030
C030
C030
C030
6060
70E0
3FC0
0F00
ENDCHAR

STARTCHAR multiply
ENCODING 215
SWIDTH 584 0
DWIDTH 11 0
BBX 7 8 2 3
BITMAP
82
C6
6C
38
38
6C
C6
82
ENDCHAR

STARTCHAR Oslash
ENCODING 216
SWIDTH 823 0
DWIDTH 17 0
BBX 14 13 1 0
BITMAP
07CC
1FF8
3838
3078
60CC
618C
630C
660C
6C0C
3818
3838
7FF0
C7C0
ENDCHAR

STARTCHAR Ugrave
ENCODING 217
SWIDTH 708 0
DWIDTH 13 0
BBX 9 17 2 0
BITMAP
3000
1800
0C00
0000
C180
C180
C180
C180
C180
C180
C180
C180
C180
C180
E380
7F00
3E00
ENDCHAR

STARTCHAR Uacute
ENCODING 218
SWIDTH 708 0
DWIDTH 13 0
BBX 9 17 2 0
BITMAP
0600
0C00
1800
0000
C180
C180
C180
C180
C180
C180
C180
C180
C180
C180
E380
7F00
3E00
ENDCHAR

STARTCHAR Ucircumflex
ENCODING 219
SWIDTH 708 0
DWIDTH 13 0
BBX 9 17 2 0
BITMAP
0C00
1E00
3300
0000
C180
C180
C180
C180
C180
C180
C180
C180
C180
C180
E380
7F00
3E00
ENDCHAR

STARTCHAR Udieresis
ENCODING 220
SWIDTH 708 0
DWIDTH 13 0
BBX 9 16 2 0
BITMAP
3300
3300
0000
C180
C180
C180
C180
C180
C180
C180
C180
C180
C180
E380
7F00
3E00
ENDCHAR

STARTCHAR Yacute
ENCODING 221
SWIDTH 604 0
DWIDTH 11 0
BBX 12 17 -1 0
BITMAP
0300
0600
0C00
0000
E070
70E0
39C0
1F80
0F00
0600
0600
0600
0600
0600
0600
0600
0600
ENDCHAR

STARTCHAR Thorn
ENCODING 222
SWIDTH 510 0
DWIDTH 10 0
BBX 7 13 2 0
BITMAP
C0
C0
C0
F8
FC
C6
C6
C6
FC
F8
C0
C0
C0
ENDCHAR

STARTCHAR germandbls
ENCODING 223
SWIDTH 500 0
DWIDTH 10 0
BBX 8 13 1 0
BITMAP
38
7C
C6
C6
C6
DC
DC
C6
C3
C3
C3
DE
DC
ENDCHAR

STARTCHAR agrave
ENCODING 224
SWIDTH 427 0
DWIDTH 8 0
BBX 7 13 1 0
BITMAP
60
30
18
00
78
FC
CC
0C
7C
FC
CC
FC
76
ENDCHAR

STARTCHAR aacute
ENCODING 225
SWIDTH 427 0
DWIDTH 8 0
BBX 7 13 1 0
BITMAP
0C
18
30
00
78
FC
CC
0C
7C
FC
CC
FC
76
ENDCHAR

STARTCHAR acircumflex
ENCODING 226
SWIDTH 427 0
DWIDTH 8 0
BBX 7 13 1 0
BITMAP
30
78
CC
00
78
FC
CC
0C
7C
FC
CC
FC
76
ENDCHAR

STARTCHAR atilde
ENCODING 227
SWIDTH 427 0
DWIDTH 8 0
BBX 7 13 1 0
BITMAP
64
FC
98
00
78
FC
CC
0C
7C
FC
CC
FC
76
ENDCHAR

STARTCHAR adieresis
ENCODING 228
SWIDTH 427 0
DWIDTH 8 0
BBX 7 12 1 0
BITMAP
CC
CC
00
78
FC
CC
0C
7C
FC
CC
FC
76
ENDCHAR

STARTCHAR aring
ENCODING 229
SWIDTH 427 0
DWIDTH 8 0
BBX 7 14 1 0
BITMAP
30
48
48
30
00
78
FC
CC
0C
7C
FC
CC
FC
76
ENDCHAR

STARTCHAR ae
ENCODING 230
SWIDTH 667 0
DWIDTH 13 0
BBX 11 9 1 0
BITMAP
7B80
FFC0
8C60
0FE0
7FE0
FC00
CE20
FFE0
73C0
ENDCHAR

STARTCHAR ccedilla
ENCODING 231
SWIDTH 438 0
DWIDTH 8 0
BBX 6 12 1 -3
BITMAP
38
7C
CC
C0
C0
C0
CC
7C
38
30
18
70
ENDCHAR

STARTCHAR egrave
ENCODING 232
SWIDTH 479 0
DWIDTH 9 0
BBX 8 13 0 0
BITMAP
30
18
0C
00
3C
7E
C3
FF
FF
C0
C3
7F
3E
ENDCHAR

STARTCHAR eacute
ENCODING 233
SWIDTH 479 0
DWIDTH 9 0
BBX 8 13 0 0
BITMAP
06
0C
18
00
3C
7E
C3
FF
FF
C0
C3
7F
3E
ENDCHAR

STARTCHAR ecircumflex
ENCODING 234
SWIDTH 479 0
DWIDTH 9 0
BBX 8 13 0 0
BITMAP
18
3C
66
00
3C
7E
C3
FF
FF
C0
C3
7F
3E
ENDCHAR

STARTCHAR edieresis
ENCODING 235
SWIDTH 479 0
DWIDTH 9 0
BBX 8 12 0 0
BITMAP
66
66
00
3C
7E
C3
FF
FF
C0
C3
7F
3E
ENDCHAR

STARTCHAR igrave
ENCODING 236
SWIDTH 219 0
DWIDTH 4 0
BBX 4 13 0 0
BITMAP
C0
60
30
00
60
60
60
60
60
60
60
60
60
ENDCHAR

STARTCHAR iacute
ENCODING 237
SWIDTH 219 0
DWIDTH 4 0
BBX 4 13 0 0
BITMAP
30
60
C0
00
60
60
60
60
60
60
60
60
60
ENDCHAR

STARTCHAR icircumflex
ENCODING 238
SWIDTH 219 0
DWIDTH 4 0
BBX 6 13 -1 0
BITMAP
30
78
CC
00
30
30
30
30
30
30
30
30
30
ENDCHAR

STARTCHAR idieresis
ENCODING 239
SWIDTH 219 0
DWIDTH 4 0
BBX 6 12 -1 0
BITMAP
CC
CC
00
30
30
30
30
30
30
30
30
30
ENDCHAR

STARTCHAR eth
ENCODING 240
SWIDTH 563 0
DWIDTH 11 0
BBX 8 14 1 0
BITMAP
66
3C
38
6C
06
3E
7F
C3
C3
C3
C3
C3
7E
3C
ENDCHAR

STARTCHAR ntilde
ENCODING 241
SWIDTH 500 0
DWIDTH 10 0
BBX 7 13 1 0
BITMAP
32
7E
4C
00
DC
FE
E6
C6
C6
C6
C6
C6
C6
ENDCHAR

STARTCHAR ograve
ENCODING 242
SWIDTH 552 0
DWIDTH 10 0
BBX 8 13 1 0
BITMAP
30
18
0C
00
3C
7E
C3
C3
C3
C3
C3
7E
3C
ENDCHAR

STARTCHAR oacute
ENCODING 243
SWIDTH 552 0
DWIDTH 10 0
BBX 8 13 1 0
BITMAP
0C
18
30
00
3C
7E
C3
C3
C3
C3
C3
7E
3C
ENDCHAR

STARTCHAR ocircumflex
ENCODING 244
SWIDTH 552 0
DWIDTH 10 0
BBX 8 13 1 0
BITMAP
18
3C
66
00
3C
7E
C3
C3
C3
C3
C3
7E
3C
ENDCHAR

STARTCHAR otilde
ENCODING 245
SWIDTH 552 0
DWIDTH 10 0
BBX 8 13 1 0
BITMAP
32
7E
4C
00
3C
7E
C3
C3
C3
C3
C3
7E
3C
ENDCHAR

STARTCHAR odieresis
ENCODING 246
SWIDTH 552 0
DWIDTH 10 0
BBX 8 12 1 0
BITMAP
66
66
00
3C
7E
C3
C3
C3
C3
C3
7E
3C
ENDCHAR

STARTCHAR divide
ENCODING 247
SWIDTH 584 0
DWIDTH 11 0
BBX 10 8 0 3
BITMAP
0C00
0C00
0000
FFC0
FFC0
0000
0C00
0C00
ENDCHAR

STARTCHAR oslash
ENCODING 248
SWIDTH 552 0
DWIDTH 10 0
BBX 10 10 0 0
BITMAP
00C0
1F80
3F80
6380
6780
6D80
7980
7180
7F00
DE00
ENDCHAR

STARTCHAR ugrave
ENCODING 249
SWIDTH 500 0
DWIDTH 10 0
BBX 7 13 1 0
BITMAP
30
18
0C
00
C6
C6
C6
C6
C6
C6
CE
FE
76
ENDCHAR

STARTCHAR uacute
ENCODING 250
SWIDTH 500 0
DWIDTH 10 0
BBX 7 13 1 0
BITMAP
0C
18
30
00
C6
C6
C6
C6
C6
C6
CE
FE
76
ENDCHAR

STARTCHAR ucircumflex
ENCODING 251
SWIDTH 500 0
DWIDTH 10 0
BBX 7 13 1 0
BITMAP
18
3C
66
00
C6
C6
C6
C6
C6
C6
CE
FE
76
ENDCHAR

STARTCHAR udieresis
ENCODING 252
SWIDTH 500 0
DWIDTH 10 0
BBX 7 12 1 0
BITMAP
C6
C6
00
C6
C6
C6
C6
C6
C6
CE
FE
76
ENDCHAR

STARTCHAR yacute
ENCODING 253
SWIDTH 438 0
DWIDTH 8 0
BBX 8 17 0 -4
BITMAP
0C
18
30
00
C3
63
66
36
34
1C
18
18
30
30
60
60
C0
ENDCHAR

STARTCHAR thorn
ENCODING 254
SWIDTH 500 0
DWIDTH 10 0
BBX 8 17 1 -4
BITMAP
C0
C0
C0
C0
DC
FE
E3
C3
C3
C3
E3
FE
DC
C0
C0
C0
C0
ENDCHAR

STARTCHAR ydieresis
ENCODING 255
SWIDTH 438 0
DWIDTH 8 0
BBX 8 16 0 -4
BITMAP
66
66
00
C3
63
66
36
34
1C
18
18
30
30
60
60
C0
ENDCHAR
ENDFONT
